<svg width="412" height="55" viewBox="0 0 412 55" fill="none" xmlns="http://www.w3.org/2000/svg">
<rect x="47.2583" y="3" width="317.742" height="49" rx="24.5" fill="#373637"/>
<rect x="47.2583" y="3" width="317.742" height="49" rx="24.5" stroke="white" stroke-width="6"/>
<path d="M95.5948 22.575V24.425H88.0198V30.3H94.1698V32.15H88.0198V40H85.7448V22.575H95.5948ZM106.242 40.175C104.626 40.175 103.151 39.8 101.817 39.05C100.484 38.2833 99.4258 37.225 98.6425 35.875C97.8758 34.5083 97.4925 32.975 97.4925 31.275C97.4925 29.575 97.8758 28.05 98.6425 26.7C99.4258 25.3333 100.484 24.275 101.817 23.525C103.151 22.7583 104.626 22.375 106.242 22.375C107.876 22.375 109.359 22.7583 110.692 23.525C112.026 24.275 113.076 25.325 113.842 26.675C114.609 28.025 114.992 29.5583 114.992 31.275C114.992 32.9917 114.609 34.525 113.842 35.875C113.076 37.225 112.026 38.2833 110.692 39.05C109.359 39.8 107.876 40.175 106.242 40.175ZM106.242 38.2C107.459 38.2 108.551 37.9167 109.517 37.35C110.501 36.7833 111.267 35.975 111.817 34.925C112.384 33.875 112.667 32.6583 112.667 31.275C112.667 29.875 112.384 28.6583 111.817 27.625C111.267 26.575 110.509 25.7667 109.542 25.2C108.576 24.6333 107.476 24.35 106.242 24.35C105.009 24.35 103.909 24.6333 102.942 25.2C101.976 25.7667 101.209 26.575 100.642 27.625C100.092 28.6583 99.8175 29.875 99.8175 31.275C99.8175 32.6583 100.092 33.875 100.642 34.925C101.209 35.975 101.976 36.7833 102.942 37.35C103.926 37.9167 105.026 38.2 106.242 38.2ZM127.171 40L123.021 32.875H120.271V40H117.996V22.575H123.621C124.937 22.575 126.046 22.8 126.946 23.25C127.862 23.7 128.546 24.3083 128.996 25.075C129.446 25.8417 129.671 26.7167 129.671 27.7C129.671 28.9 129.321 29.9583 128.621 30.875C127.937 31.7917 126.904 32.4 125.521 32.7L129.896 40H127.171ZM120.271 31.05H123.621C124.854 31.05 125.779 30.75 126.396 30.15C127.012 29.5333 127.321 28.7167 127.321 27.7C127.321 26.6667 127.012 25.8667 126.396 25.3C125.796 24.7333 124.871 24.45 123.621 24.45H120.271V31.05ZM146.406 27.625C145.922 26.6083 145.222 25.825 144.306 25.275C143.389 24.7083 142.322 24.425 141.106 24.425C139.889 24.425 138.789 24.7083 137.806 25.275C136.839 25.825 136.072 26.625 135.506 27.675C134.956 28.7083 134.681 29.9083 134.681 31.275C134.681 32.6417 134.956 33.8417 135.506 34.875C136.072 35.9083 136.839 36.7083 137.806 37.275C138.789 37.825 139.889 38.1 141.106 38.1C142.806 38.1 144.206 37.5917 145.306 36.575C146.406 35.5583 147.047 34.1833 147.231 32.45H140.281V30.6H149.656V32.35C149.522 33.7833 149.072 35.1 148.306 36.3C147.539 37.4833 146.531 38.425 145.281 39.125C144.031 39.8083 142.639 40.15 141.106 40.15C139.489 40.15 138.014 39.775 136.681 39.025C135.347 38.2583 134.289 37.2 133.506 35.85C132.739 34.5 132.356 32.975 132.356 31.275C132.356 29.575 132.739 28.05 133.506 26.7C134.289 25.3333 135.347 24.275 136.681 23.525C138.014 22.7583 139.489 22.375 141.106 22.375C142.956 22.375 144.589 22.8333 146.006 23.75C147.439 24.6667 148.481 25.9583 149.131 27.625H146.406ZM160.564 40.175C158.947 40.175 157.472 39.8 156.139 39.05C154.805 38.2833 153.747 37.225 152.964 35.875C152.197 34.5083 151.814 32.975 151.814 31.275C151.814 29.575 152.197 28.05 152.964 26.7C153.747 25.3333 154.805 24.275 156.139 23.525C157.472 22.7583 158.947 22.375 160.564 22.375C162.197 22.375 163.68 22.7583 165.014 23.525C166.347 24.275 167.397 25.325 168.164 26.675C168.93 28.025 169.314 29.5583 169.314 31.275C169.314 32.9917 168.93 34.525 168.164 35.875C167.397 37.225 166.347 38.2833 165.014 39.05C163.68 39.8 162.197 40.175 160.564 40.175ZM160.564 38.2C161.78 38.2 162.872 37.9167 163.839 37.35C164.822 36.7833 165.589 35.975 166.139 34.925C166.705 33.875 166.989 32.6583 166.989 31.275C166.989 29.875 166.705 28.6583 166.139 27.625C165.589 26.575 164.83 25.7667 163.864 25.2C162.897 24.6333 161.797 24.35 160.564 24.35C159.33 24.35 158.23 24.6333 157.264 25.2C156.297 25.7667 155.53 26.575 154.964 27.625C154.414 28.6583 154.139 29.875 154.139 31.275C154.139 32.6583 154.414 33.875 154.964 34.925C155.53 35.975 156.297 36.7833 157.264 37.35C158.247 37.9167 159.347 38.2 160.564 38.2ZM183.042 22.575V24.425H178.292V40H176.017V24.425H171.242V22.575H183.042ZM204.158 27.675C204.158 29.125 203.658 30.3333 202.658 31.3C201.674 32.25 200.166 32.725 198.133 32.725H194.783V40H192.508V22.575H198.133C200.099 22.575 201.591 23.05 202.608 24C203.641 24.95 204.158 26.175 204.158 27.675ZM198.133 30.85C199.399 30.85 200.333 30.575 200.933 30.025C201.533 29.475 201.833 28.6917 201.833 27.675C201.833 25.525 200.599 24.45 198.133 24.45H194.783V30.85H198.133ZM217.285 36.125H209.685L208.285 40H205.885L212.185 22.675H214.81L221.085 40H218.685L217.285 36.125ZM216.635 34.275L213.485 25.475L210.335 34.275H216.635ZM229.356 40.175C228.206 40.175 227.172 39.975 226.256 39.575C225.356 39.1583 224.647 38.5917 224.131 37.875C223.614 37.1417 223.347 36.3 223.331 35.35H225.756C225.839 36.1667 226.172 36.8583 226.756 37.425C227.356 37.975 228.222 38.25 229.356 38.25C230.439 38.25 231.289 37.9833 231.906 37.45C232.539 36.9 232.856 36.2 232.856 35.35C232.856 34.6833 232.672 34.1417 232.306 33.725C231.939 33.3083 231.481 32.9917 230.931 32.775C230.381 32.5583 229.639 32.325 228.706 32.075C227.556 31.775 226.631 31.475 225.931 31.175C225.247 30.875 224.656 30.4083 224.156 29.775C223.672 29.125 223.431 28.2583 223.431 27.175C223.431 26.225 223.672 25.3833 224.156 24.65C224.639 23.9167 225.314 23.35 226.181 22.95C227.064 22.55 228.072 22.35 229.206 22.35C230.839 22.35 232.172 22.7583 233.206 23.575C234.256 24.3917 234.847 25.475 234.981 26.825H232.481C232.397 26.1583 232.047 25.575 231.431 25.075C230.814 24.5583 229.997 24.3 228.981 24.3C228.031 24.3 227.256 24.55 226.656 25.05C226.056 25.5333 225.756 26.2167 225.756 27.1C225.756 27.7333 225.931 28.25 226.281 28.65C226.647 29.05 227.089 29.3583 227.606 29.575C228.139 29.775 228.881 30.0083 229.831 30.275C230.981 30.5917 231.906 30.9083 232.606 31.225C233.306 31.525 233.906 32 234.406 32.65C234.906 33.2833 235.156 34.15 235.156 35.25C235.156 36.1 234.931 36.9 234.481 37.65C234.031 38.4 233.364 39.0083 232.481 39.475C231.597 39.9417 230.556 40.175 229.356 40.175ZM244.029 40.175C242.879 40.175 241.845 39.975 240.929 39.575C240.029 39.1583 239.32 38.5917 238.804 37.875C238.287 37.1417 238.02 36.3 238.004 35.35H240.429C240.512 36.1667 240.845 36.8583 241.429 37.425C242.029 37.975 242.895 38.25 244.029 38.25C245.112 38.25 245.962 37.9833 246.579 37.45C247.212 36.9 247.529 36.2 247.529 35.35C247.529 34.6833 247.345 34.1417 246.979 33.725C246.612 33.3083 246.154 32.9917 245.604 32.775C245.054 32.5583 244.312 32.325 243.379 32.075C242.229 31.775 241.304 31.475 240.604 31.175C239.92 30.875 239.329 30.4083 238.829 29.775C238.345 29.125 238.104 28.2583 238.104 27.175C238.104 26.225 238.345 25.3833 238.829 24.65C239.312 23.9167 239.987 23.35 240.854 22.95C241.737 22.55 242.745 22.35 243.879 22.35C245.512 22.35 246.845 22.7583 247.879 23.575C248.929 24.3917 249.52 25.475 249.654 26.825H247.154C247.07 26.1583 246.72 25.575 246.104 25.075C245.487 24.5583 244.67 24.3 243.654 24.3C242.704 24.3 241.929 24.55 241.329 25.05C240.729 25.5333 240.429 26.2167 240.429 27.1C240.429 27.7333 240.604 28.25 240.954 28.65C241.32 29.05 241.762 29.3583 242.279 29.575C242.812 29.775 243.554 30.0083 244.504 30.275C245.654 30.5917 246.579 30.9083 247.279 31.225C247.979 31.525 248.579 32 249.079 32.65C249.579 33.2833 249.829 34.15 249.829 35.25C249.829 36.1 249.604 36.9 249.154 37.65C248.704 38.4 248.037 39.0083 247.154 39.475C246.27 39.9417 245.229 40.175 244.029 40.175ZM275.076 22.575L270.026 40H267.476L263.426 25.975L259.226 40L256.701 40.025L251.826 22.575H254.251L258.051 37.35L262.251 22.575H264.801L268.801 37.3L272.626 22.575H275.076ZM285.466 40.175C283.849 40.175 282.374 39.8 281.041 39.05C279.708 38.2833 278.649 37.225 277.866 35.875C277.099 34.5083 276.716 32.975 276.716 31.275C276.716 29.575 277.099 28.05 277.866 26.7C278.649 25.3333 279.708 24.275 281.041 23.525C282.374 22.7583 283.849 22.375 285.466 22.375C287.099 22.375 288.583 22.7583 289.916 23.525C291.249 24.275 292.299 25.325 293.066 26.675C293.833 28.025 294.216 29.5583 294.216 31.275C294.216 32.9917 293.833 34.525 293.066 35.875C292.299 37.225 291.249 38.2833 289.916 39.05C288.583 39.8 287.099 40.175 285.466 40.175ZM285.466 38.2C286.683 38.2 287.774 37.9167 288.741 37.35C289.724 36.7833 290.491 35.975 291.041 34.925C291.608 33.875 291.891 32.6583 291.891 31.275C291.891 29.875 291.608 28.6583 291.041 27.625C290.491 26.575 289.733 25.7667 288.766 25.2C287.799 24.6333 286.699 24.35 285.466 24.35C284.233 24.35 283.133 24.6333 282.166 25.2C281.199 25.7667 280.433 26.575 279.866 27.625C279.316 28.6583 279.041 29.875 279.041 31.275C279.041 32.6583 279.316 33.875 279.866 34.925C280.433 35.975 281.199 36.7833 282.166 37.35C283.149 37.9167 284.249 38.2 285.466 38.2ZM306.394 40L302.244 32.875H299.494V40H297.219V22.575H302.844C304.161 22.575 305.269 22.8 306.169 23.25C307.086 23.7 307.769 24.3083 308.219 25.075C308.669 25.8417 308.894 26.7167 308.894 27.7C308.894 28.9 308.544 29.9583 307.844 30.875C307.161 31.7917 306.128 32.4 304.744 32.7L309.119 40H306.394ZM299.494 31.05H302.844C304.078 31.05 305.003 30.75 305.619 30.15C306.236 29.5333 306.544 28.7167 306.544 27.7C306.544 26.6667 306.236 25.8667 305.619 25.3C305.019 24.7333 304.094 24.45 302.844 24.45H299.494V31.05ZM317.854 22.575C319.754 22.575 321.396 22.9333 322.779 23.65C324.179 24.35 325.246 25.3583 325.979 26.675C326.729 27.9917 327.104 29.5417 327.104 31.325C327.104 33.1083 326.729 34.6583 325.979 35.975C325.246 37.275 324.179 38.275 322.779 38.975C321.396 39.6583 319.754 40 317.854 40H312.429V22.575H317.854ZM317.854 38.125C320.104 38.125 321.821 37.5333 323.004 36.35C324.188 35.15 324.779 33.475 324.779 31.325C324.779 29.1583 324.179 27.4667 322.979 26.25C321.796 25.0333 320.088 24.425 317.854 24.425H314.704V38.125H317.854Z" fill="white"/>
</svg>
